# xmcd
#
# Track frame offsets:
#	150
#	12422
#	22320
#	32433
#	45557
#	55455
#	73052
#	80932
#	91936
#	106094
#	117629
#	128051
#	143366
#	156903
#	168514
#
# Disc length: 2416
#
# Revision: 2
# Processed by: cddbd v1.5.1PL0 Copyright (c) Steve Scherf et al.
# Submitted via: EasyCDDAExtractor 4.6.9.1
# Normalized: r0:DSETVAR1,TDELIM( - ),TSWAP
#
DISCID=cc096e0f
DTITLE=Various Artist - On The Road
DYEAR=2000
DGENRE=Country
TTITLE0=Johnny Cash - Ring of  Fire
TTITLE1=Dave Dudly - Travellin ' Man
TTITLE2=Rusty Draper - Mule Skinner Blues
TTITLE3=The Kendalles - Thank god for the Radio
TTITLE4=Dave Dudley - Six days on the road
TTITLE5=Sohnny Cash - Sunday Moring Coming Down
TTITLE6=Country All Star Team - Hallo Mary Lou
TTITLE7=Roger Miller - King of the Road
TTITLE8=Roger miller - Green green Grass of home
TTITLE9=Kenny Rogers - Me and Bobby Mc Gee
TTITLE10=Connie Francis - O Lonsome Me
TTITLE11=Billy Ray Cyrus - Achy breaky Heart
TTITLE12=Tom T. Hall - A Weed In a Country Jail
TTITLE13=Johnny Cash - I walk the Line
TTITLE14=The Statler Brothers - Take me Home country Roads
EXTD=
EXTT0=
EXTT1=
EXTT2=
EXTT3=
EXTT4=
EXTT5=
EXTT6=
EXTT7=
EXTT8=
EXTT9=
EXTT10=
EXTT11=
EXTT12=
EXTT13=
EXTT14=
PLAYORDER=
